<?xml version="1.0" standalone="no"?>
<!DOCTYPE svg PUBLIC "-//W3C//DTD SVG 20010904//EN"
 "http://www.w3.org/TR/2001/REC-SVG-20010904/DTD/svg10.dtd">
<svg version="1.0" xmlns="http://www.w3.org/2000/svg"
 width="560.000000pt" height="560.000000pt" viewBox="0 0 560.000000 560.000000"
 preserveAspectRatio="xMidYMid meet">
<metadata>
Created by potrace 1.11, written by Peter Selinger 2001-2013
</metadata>
<g transform="translate(0.000000,560.000000) scale(0.100000,-0.100000)"
fill="#000000" stroke="none">
<path d="M2695 5261 c-17 -10 -37 -27 -46 -37 -26 -32 -97 -234 -104 -296 -2
-18 -4 -35 -5 -38 0 -3 -14 33 -30 79 -31 88 -52 121 -116 186 -71 70 -135 94
-163 61 -16 -19 -20 -91 -8 -134 4 -19 6 -36 4 -39 -3 -2 -27 16 -53 41 -70
65 -89 74 -114 51 -17 -16 -19 -27 -15 -109 2 -50 11 -127 19 -171 8 -44 13
-81 11 -84 -4 -3 -10 19 -19 69 -10 53 -15 71 -34 112 -29 66 -45 78 -95 71
-46 -6 -60 -20 -76 -73 -12 -40 -7 -143 9 -184 21 -57 3 -34 -28 33 -39 86
-69 122 -122 146 -40 18 -43 18 -74 1 -18 -10 -40 -32 -48 -49 -18 -38 -15
-125 7 -189 l15 -43 -20 25 c-11 14 -22 33 -26 43 -3 9 -10 17 -15 17 -6 0 -8
4 -5 9 3 4 -5 18 -18 30 -20 19 -32 21 -105 18 -67 -3 -86 -7 -103 -25 -42
-41 -12 -156 77 -301 24 -39 42 -71 40 -71 -2 0 -27 23 -54 50 -39 39 -57 50
-82 50 -25 0 -30 -3 -26 -17 3 -10 15 -48 26 -85 11 -37 23 -73 26 -80 9 -18
-43 39 -80 86 -16 21 -35 44 -40 50 -6 6 -28 32 -49 58 -37 46 -39 47 -65 33
-15 -7 -44 -32 -64 -54 -28 -31 -35 -46 -31 -68 5 -29 44 -100 73 -135 9 -11
26 -32 38 -46 41 -48 24 -40 -39 20 l-62 59 -18 -23 c-25 -32 -36 -78 -27
-110 5 -19 3 -28 -8 -32 -8 -3 -18 -4 -21 -2 -4 2 -24 7 -44 10 -26 4 -41 1
-53 -10 -14 -15 -14 -19 9 -49 29 -37 44 -85 27 -85 -6 0 -11 4 -11 10 0 5
-12 16 -28 24 -23 12 -33 12 -58 1 -47 -19 -64 -42 -64 -85 0 -43 24 -68 110
-117 28 -15 50 -31 50 -36 0 -4 -3 -6 -7 -5 -15 4 -53 -14 -54 -25 -3 -26 4
-42 24 -59 16 -14 22 -16 29 -6 5 8 8 9 8 2 0 -20 -24 -33 -80 -40 -30 -4 -59
-7 -65 -8 -5 -1 -16 -5 -23 -9 -6 -5 -12 -6 -12 -3 0 9 -144 -46 -175 -67 -16
-11 -31 -21 -32 -21 -1 -1 -4 -12 -8 -26 -4 -18 0 -32 12 -47 23 -27 101 -70
164 -92 27 -9 50 -20 51 -25 2 -5 -22 -11 -52 -13 -30 -2 -68 -12 -85 -22 -25
-14 -30 -24 -33 -62 -1 -34 3 -51 18 -67 26 -27 25 -32 -2 -32 -29 0 -119 -42
-136 -63 -12 -14 -8 -21 28 -55 l43 -39 -36 2 c-54 4 -83 -14 -79 -50 4 -37
62 -142 99 -182 21 -22 27 -38 25 -61 -2 -19 -9 -32 -17 -32 -26 0 -47 -46
-40 -87 10 -60 69 -168 90 -166 85 8 146 11 130 6 -11 -3 -25 -9 -30 -13 -6
-5 -33 -12 -60 -15 -28 -4 -59 -8 -70 -10 -11 -2 -38 -6 -60 -10 -107 -16
-130 -25 -144 -56 -16 -36 -9 -94 15 -120 23 -25 90 -55 189 -84 l84 -24 153
40 c188 48 223 55 213 39 -7 -11 -65 -40 -90 -46 -21 -4 -132 -47 -180 -69
-27 -12 -83 -35 -124 -51 -90 -36 -114 -66 -106 -133 6 -46 25 -79 70 -121 24
-23 35 -25 118 -27 90 -1 127 7 272 61 44 17 49 15 20 -9 -16 -14 -35 -25 -42
-25 -6 0 -13 -3 -15 -8 -2 -4 -46 -32 -98 -61 -184 -105 -216 -131 -199 -162
8 -16 85 -46 138 -54 36 -5 131 32 219 84 51 31 105 63 120 72 19 11 32 14 45
7 16 -8 9 -16 -50 -60 -37 -28 -76 -60 -86 -71 -39 -45 -34 -111 15 -211 33
-68 32 -68 117 -52 37 7 138 54 159 73 6 6 21 15 32 18 11 3 20 11 20 16 0 5
3 9 8 9 4 0 7 -16 6 -36 -1 -24 -12 -51 -36 -83 -47 -62 -77 -123 -80 -158 -3
-42 22 -122 42 -133 34 -18 104 34 278 208 110 110 111 111 65 47 -26 -36 -48
-71 -49 -78 -1 -7 -25 -51 -53 -99 -41 -68 -52 -95 -52 -129 0 -76 20 -128 58
-147 59 -30 165 67 285 260 81 128 126 190 110 153 -22 -54 -54 -123 -68 -148
-9 -15 -13 -35 -10 -43 3 -8 2 -12 -3 -9 -5 3 -13 -5 -17 -17 -7 -25 -43 -79
-59 -90 -10 -7 -1 -12 17 -9 4 0 5 -6 1 -15 -5 -13 -8 -13 -15 -2 -8 10 -11
10 -15 0 -2 -7 -11 -19 -20 -27 -18 -19 -9 -35 17 -28 23 6 24 2 10 -48 -17
-60 -18 -98 -4 -110 7 -6 32 -12 55 -14 81 -6 155 66 231 225 24 49 47 89 51
89 5 1 5 -3 2 -9 -3 -5 -1 -10 6 -10 9 0 7 -4 -3 -13 -17 -13 -24 -44 -34
-157 -7 -85 -40 -221 -78 -326 -41 -116 -40 -142 6 -125 28 10 106 89 152 155
65 91 92 146 121 239 23 77 28 85 48 80 18 -4 19 -3 7 6 -17 12 -1 15 18 2 8
-4 11 -19 8 -37 -3 -16 -8 -56 -12 -89 -3 -33 -8 -69 -10 -80 -11 -50 -12
-193 -3 -234 6 -26 13 -57 15 -70 11 -56 39 -77 63 -48 15 19 46 107 56 157 1
8 5 22 8 30 3 8 8 29 11 45 2 17 9 50 14 75 6 25 13 63 17 85 8 54 15 92 25
140 8 33 8 28 4 -25 -2 -36 -7 -99 -10 -140 -3 -41 -7 -88 -8 -104 -7 -53 23
-90 78 -98 14 -2 20 4 23 27 2 17 5 45 7 63 5 46 12 49 20 10 7 -37 41 -98 55
-98 11 0 30 45 37 90 3 19 7 44 8 55 2 11 4 31 5 45 1 33 15 15 31 -42 6 -25
21 -60 31 -77 22 -37 65 -57 84 -41 17 14 29 -3 20 -29 -4 -13 -1 -19 9 -17
44 6 67 79 69 217 0 43 3 79 7 79 4 0 7 -6 7 -12 4 -69 37 -178 62 -207 20
-23 86 -37 122 -26 21 7 21 15 5 115 -3 14 -7 52 -10 85 -4 33 -9 74 -11 90
-5 35 -17 183 -17 205 0 8 -6 40 -13 70 -6 30 -9 64 -5 75 7 19 7 19 18 -2 7
-12 12 -29 12 -38 0 -9 4 -14 8 -11 4 2 7 -8 6 -22 -1 -15 3 -38 8 -51 5 -13
11 -40 14 -60 16 -110 92 -292 143 -345 16 -15 22 -16 42 -6 23 12 89 79 89
90 0 3 -7 30 -16 60 -8 30 -16 60 -18 65 -12 45 -32 163 -35 208 0 11 -6 15
-13 11 -7 -5 -8 -3 -3 5 11 19 20 4 60 -103 20 -54 45 -114 56 -132 43 -77 58
-102 90 -154 70 -113 124 -190 135 -190 16 0 43 68 48 121 5 56 -16 197 -45
299 -11 41 -25 93 -30 115 -11 46 -12 52 -26 85 -6 14 -14 36 -18 49 -14 46
26 6 74 -72 80 -132 260 -347 290 -347 5 0 12 9 16 19 6 19 -2 119 -11 133 -3
4 2 8 10 8 9 0 16 4 16 9 0 10 -41 109 -71 171 -19 38 -18 48 3 31 81 -69 269
-193 297 -198 10 -1 28 7 39 18 26 24 29 73 8 124 -8 19 -12 35 -8 35 4 0 3 4
-3 8 -5 4 -23 32 -39 62 -26 50 -124 204 -153 240 -52 64 -140 189 -136 194 4
4 31 -24 118 -123 17 -19 37 -42 45 -51 8 -9 42 -47 75 -85 105 -122 136 -148
216 -179 41 -16 94 -29 119 -30 42 -1 45 1 42 23 -3 26 -51 94 -126 176 -48
52 -56 68 -31 59 15 -6 22 11 8 19 -5 2 -2 2 6 0 24 -6 31 20 13 52 -9 16 -19
32 -22 35 -7 7 -28 41 -42 68 -6 12 -17 21 -24 18 -8 -3 -16 0 -20 6 -5 7 -2
8 6 3 9 -6 12 -4 8 6 -4 9 35 -5 96 -36 86 -42 278 -115 305 -115 10 0 6 53
-8 105 -11 43 -52 111 -95 159 -15 17 -24 36 -22 42 3 7 -17 29 -43 49 -50 36
-68 44 -55 23 4 -7 3 -8 -4 -4 -6 4 -9 12 -6 19 5 15 -49 50 -61 39 -5 -4 -5
-2 -1 5 8 14 -33 45 -47 36 -6 -3 -7 -1 -3 6 4 6 0 14 -11 18 -10 3 -22 12
-26 20 -10 17 -31 17 -21 1 4 -7 3 -9 -1 -5 -5 4 -10 14 -11 22 -2 15 19 11
46 -9 49 -36 457 -208 523 -220 57 -11 80 0 72 32 -8 30 -60 107 -114 165 -20
22 -35 43 -34 48 2 5 -2 9 -9 9 -6 0 -3 7 8 15 10 8 15 15 10 15 -5 0 1 9 14
20 12 11 27 17 32 14 5 -3 41 -6 80 -5 78 1 108 16 108 56 0 30 -25 50 -85 68
-58 18 -58 18 15 22 141 8 156 26 82 101 -41 42 -144 116 -175 127 -8 2 -6 14
6 39 9 20 17 45 17 55 0 11 6 20 13 20 67 1 150 27 145 46 -4 13 -92 61 -118
64 -8 1 -60 13 -115 27 -55 14 -111 26 -125 26 l-25 1 29 15 c22 13 44 15 100
9 39 -4 97 -8 129 -11 32 -2 61 -6 66 -8 15 -10 30 18 66 120 29 82 33 101 22
112 -15 14 -101 39 -163 46 -21 3 -59 8 -84 11 -54 8 -112 13 -163 14 -39 1
-44 21 -6 21 14 0 18 4 13 13 -6 9 -4 9 7 1 14 -11 41 -11 123 0 45 6 102 57
90 79 -4 7 -4 9 1 5 10 -10 65 29 65 46 0 14 -211 97 -253 99 -30 2 -35 12
-11 21 8 3 12 11 8 17 -4 8 -3 9 4 5 16 -10 55 32 49 53 -3 14 13 23 90 46 68
20 105 37 129 60 41 39 38 56 -21 121 l-42 48 -59 -14 c-32 -7 -67 -15 -76
-17 -31 -5 -19 23 17 43 19 10 35 22 35 26 0 5 6 8 13 8 7 0 22 7 33 15 18 14
15 15 -31 13 -27 0 -54 -4 -60 -7 -5 -3 -20 -7 -32 -9 -22 -3 -22 -2 -8 45 8
26 15 49 15 50 0 1 14 10 30 18 17 9 28 20 25 25 -3 5 0 12 6 16 8 4 9 3 5 -4
-4 -7 -3 -12 2 -12 14 0 33 26 25 34 -4 4 1 4 12 0 14 -6 17 -4 12 9 -4 11 -2
14 9 10 9 -3 14 1 14 12 0 13 -9 16 -47 14 -27 -1 -54 -7 -60 -12 -16 -11 -17
-2 -3 23 18 33 18 82 2 126 -12 34 -24 47 -56 61 -22 10 -40 16 -41 14 0 -2
-10 1 -22 7 -19 11 -43 1 -190 -72 -92 -47 -170 -83 -173 -80 -7 8 40 44 87
69 21 11 62 35 91 53 29 18 82 46 117 62 88 40 94 53 61 163 -16 54 -30 68
-52 48 -8 -8 -55 -35 -134 -77 -19 -11 -37 -21 -40 -24 -3 -3 -29 -18 -57 -33
-50 -26 -68 -26 -41 1 8 8 8 15 -3 28 -9 12 -10 15 -1 10 6 -4 12 -2 12 3 0 6
-5 11 -11 11 -5 0 -8 4 -5 9 3 5 -5 16 -19 25 -30 20 -100 33 -90 17 3 -6 1
-11 -4 -11 -6 0 -11 5 -11 11 0 6 -9 8 -20 4 -22 -7 -22 -6 -5 106 5 32 3 38
-10 33 -8 -3 -15 -10 -15 -14 0 -4 -13 -13 -30 -20 -16 -7 -30 -16 -30 -21 0
-4 -8 -10 -17 -13 -10 -4 -34 -21 -54 -39 -20 -17 -52 -44 -70 -59 -19 -14
-45 -36 -58 -47 -35 -31 -35 -26 -1 23 16 25 30 56 30 69 0 14 14 39 33 59 91
97 194 214 219 247 25 34 26 40 13 51 -22 18 -167 16 -270 -5 -11 -2 -33 -4
-48 -4 -21 -1 -42 -15 -77 -51 -27 -27 -53 -50 -58 -50 -6 0 -17 -2 -24 -5 -9
-4 -14 2 -15 17 -7 125 -10 143 -25 146 -9 2 -23 -4 -31 -13 -21 -20 -44 -21
-27 0 6 8 9 19 5 25 -4 6 -14 2 -25 -12 -16 -19 -14 -8 10 58 45 126 47 232 3
248 -8 3 -43 -6 -79 -20 -35 -14 -76 -27 -91 -30 -38 -7 -40 -9 -75 -70 -17
-30 -32 -53 -34 -52 -1 2 2 24 7 48 17 74 19 83 25 145 12 121 -41 173 -103
102 -32 -37 -104 -179 -124 -244 -13 -45 -28 -53 -49 -28 -10 12 -16 13 -29 3
-14 -12 -15 -11 -2 5 11 13 11 21 3 29 -16 16 -21 8 -25 -41 -3 -37 -1 -42 15
-38 10 3 16 1 13 -3 -3 -5 -18 -8 -33 -8 -31 1 -30 -23 -18 283 4 88 3 166 -2
173 -24 35 -152 -77 -174 -152 l-13 -44 -65 91 c-36 50 -67 97 -70 104 -4 10
-12 9 -35 -6z m181 -260 c-4 -6 -15 -106 -21 -191 -2 -41 -20 -53 -19 -12 4
106 23 224 35 216 5 -3 7 -9 5 -13z m-591 -187 c6 -44 1 -37 -14 20 -7 26 -7
36 0 29 5 -5 12 -27 14 -49z m842 31 c0 -8 -4 -12 -9 -9 -5 3 -6 10 -3 15 9
13 12 11 12 -6z m11 -29 c-10 -7 -16 -15 -13 -18 3 -2 -2 -5 -12 -5 -13 0 -11
4 7 19 12 10 25 18 29 18 3 0 -2 -7 -11 -14z m-53 -65 c2 -11 0 -21 -4 -21 -5
0 -8 11 -8 25 0 30 6 28 12 -4z m40 19 c3 -5 1 -10 -4 -10 -6 0 -11 5 -11 10
0 6 2 10 4 10 3 0 8 -4 11 -10z m-545 -44 c0 -2 -7 -7 -16 -10 -8 -3 -12 -2
-9 4 6 10 25 14 25 6z m504 -32 c20 -8 21 -21 1 -21 -8 0 -12 4 -9 8 2 4 -2
10 -8 12 -7 3 -10 6 -6 6 3 1 13 -2 22 -5z m-18 -36 c5 -7 3 -8 -6 -3 -9 5
-10 1 -6 -16 6 -20 5 -21 -4 -6 -6 9 -8 22 -5 27 8 13 12 13 21 -2z m-482 -64
c3 -8 2 -12 -4 -9 -6 3 -10 10 -10 16 0 14 7 11 14 -7z m457 -7 c-10 -9 -11
-8 -5 6 3 10 9 15 12 12 3 -3 0 -11 -7 -18z m17 -19 c-8 -13 -14 -31 -12 -41
1 -9 -1 -15 -6 -12 -5 3 -7 11 -6 18 3 17 26 57 33 57 3 0 -1 -10 -9 -22z
m-453 -28 c3 -6 -1 -7 -9 -4 -18 7 -21 14 -7 14 6 0 13 -4 16 -10z m-18 -32
c-3 -8 -6 -5 -6 6 -1 11 2 17 5 13 3 -3 4 -12 1 -19z m1171 -23 c-3 -3 -9 2
-12 12 -6 14 -5 15 5 6 7 -7 10 -15 7 -18z m-1146 -52 c-6 -3 -9 -10 -6 -15 4
-7 2 -8 -5 -4 -9 6 -9 11 0 22 6 8 15 12 18 8 3 -4 0 -9 -7 -11z m1643 -181
c-3 -3 -11 0 -18 7 -9 10 -8 11 6 5 10 -3 15 -9 12 -12z m65 4 c-7 -7 -13 -7
-20 0 -6 6 -3 10 10 10 13 0 16 -4 10 -10z m-16 -25 c-2 -3 -12 3 -22 13 -16
17 -16 18 5 5 12 -7 20 -15 17 -18z m-74 9 c0 -5 -4 -10 -10 -10 -5 0 -10 5
-10 10 0 6 5 10 10 10 6 0 10 -4 10 -10z m117 -42 c-4 -15 -2 -18 11 -13 13 5
14 3 5 -6 -17 -17 -32 -3 -25 24 5 20 4 21 -11 8 -10 -7 -17 -9 -17 -3 0 12
21 21 33 15 5 -3 6 -14 4 -25z m-130 16 c-3 -3 -12 -4 -19 -1 -8 3 -5 6 6 6
11 1 17 -2 13 -5z m70 -54 c0 -16 -2 -28 -5 -25 -8 8 -11 55 -3 55 4 0 8 -13
8 -30z m-55 -2 c-8 -8 -7 -15 6 -25 15 -13 15 -13 -5 -3 -20 9 -21 13 -11 30
7 10 14 17 17 14 3 -2 -1 -10 -7 -16z m-44 -2 c-7 -8 -15 -12 -17 -11 -5 6 10
25 20 25 5 0 4 -6 -3 -14z m142 10 c0 -2 -7 -6 -15 -10 -8 -3 -15 -1 -15 4 0
6 7 10 15 10 8 0 15 -2 15 -4z m-126 -32 c3 -8 2 -12 -4 -9 -6 3 -10 10 -10
16 0 14 7 11 14 -7z m66 -9 c0 -8 -3 -16 -7 -18 -5 -3 -8 5 -8 18 0 13 3 21 8
18 4 -2 7 -10 7 -18z m-91 -19 c0 -7 -2 -6 -6 2 -2 6 -8 10 -12 8 -4 -3 -8 1
-8 9 0 11 4 12 14 4 7 -6 13 -17 12 -23z m151 20 c0 -2 -9 -6 -20 -9 -11 -3
-18 -1 -14 4 5 9 34 13 34 5z m-189 -48 c-10 -11 -11 -9 -5 6 6 15 4 17 -6 11
-9 -6 -11 -4 -5 4 5 9 10 10 18 2 8 -8 7 -14 -2 -23z m79 28 c0 -2 -7 -6 -15
-10 -8 -3 -15 -1 -15 4 0 6 7 10 15 10 8 0 15 -2 15 -4z m-42 -41 c-3 -3 -9 2
-12 12 -6 14 -5 15 5 6 7 -7 10 -15 7 -18z m52 16 c0 -6 -4 -12 -8 -15 -5 -3
-9 1 -9 9 0 8 4 15 9 15 4 0 8 -4 8 -9z m-66 -27 c3 -8 2 -12 -4 -9 -6 3 -10
10 -10 16 0 14 7 11 14 -7z m-64 -14 c-8 -5 -22 -9 -30 -9 -10 0 -8 3 5 9 27
12 43 12 25 0z m44 -6 c5 -14 4 -15 -9 -4 -17 14 -19 20 -6 20 5 0 12 -7 15
-16z m-32 -11 c-6 -2 -10 -9 -7 -13 3 -5 1 -11 -4 -14 -7 -5 -8 11 -2 32 1 1
7 2 14 1 9 0 9 -2 -1 -6z m-40 -17 c7 4 8 2 4 -5 -4 -6 -12 -8 -18 -5 -7 5 -9
2 -5 -8 4 -11 0 -15 -11 -14 -9 2 -23 -4 -30 -13 -11 -14 -11 -13 -2 7 6 13
16 20 22 16 8 -5 9 -1 5 10 -4 10 -3 15 3 11 6 -3 10 0 11 7 0 10 2 10 6 0 2
-6 10 -9 15 -6z m753 -194 c-3 -3 -11 0 -18 7 -9 10 -8 11 6 5 10 -3 15 -9 12
-12z m72 12 c-3 -3 -12 -4 -19 -1 -8 3 -5 6 6 6 11 1 17 -2 13 -5z m-4027 -20
c0 -8 -19 -13 -24 -6 -3 5 1 9 9 9 8 0 15 -2 15 -3z m40 -9 c0 -8 -2 -15 -4
-15 -2 0 -6 7 -10 15 -3 8 -1 15 4 15 6 0 10 -7 10 -15z m3857 -7 c-3 -8 -6
-5 -6 6 -1 11 2 17 5 13 3 -3 4 -12 1 -19z m103 18 c0 -2 -7 -7 -16 -10 -8 -3
-12 -2 -9 4 6 10 25 14 25 6z m-65 -16 c3 -5 1 -10 -4 -10 -6 0 -11 5 -11 10
0 6 2 10 4 10 3 0 8 -4 11 -10z m-3915 -10 c0 -5 -4 -10 -10 -10 -5 0 -10 5
-10 10 0 6 5 10 10 10 6 0 10 -4 10 -10z m3820 0 c0 -5 -5 -10 -11 -10 -5 0
-7 5 -4 10 3 6 8 10 11 10 2 0 4 -4 4 -10z m-3846 -16 c3 -8 2 -12 -4 -9 -6 3
-10 10 -10 16 0 14 7 11 14 -7z m121 -24 c3 -6 -1 -7 -9 -4 -18 7 -21 14 -7
14 6 0 13 -4 16 -10z m-11 -20 c2 -3 -15 -5 -39 -5 -24 0 -41 3 -39 7 5 7 70
5 78 -2z m3876 -100 c0 -5 -2 -10 -4 -10 -3 0 -8 5 -11 10 -3 6 -1 10 4 10 6
0 11 -4 11 -10z m-27 -13 c7 3 8 2 4 -2 -10 -11 -37 -15 -37 -6 0 14 14 23 18
12 2 -6 9 -8 15 -4z m-48 -25 c-3 -3 -11 0 -18 7 -9 10 -8 11 6 5 10 -3 15 -9
12 -12z m-45 -12 c0 -5 -2 -10 -4 -10 -3 0 -8 5 -11 10 -3 6 -1 10 4 10 6 0
11 -4 11 -10z m47 -11 c-9 -6 -15 -14 -12 -20 4 -5 1 -9 -4 -9 -6 0 -11 4 -11
8 0 12 22 32 35 32 5 0 2 -5 -8 -11z m-110 -16 c-4 -3 1 -12 11 -20 16 -12 16
-13 -2 -6 -14 5 -17 3 -11 -7 5 -8 4 -11 -3 -7 -5 4 -9 15 -7 25 5 23 4 22 12
22 3 0 3 -3 0 -7z m52 -16 c0 -9 -2 -8 -6 1 -2 6 -10 9 -15 6 -7 -4 -8 -2 -4
5 9 13 26 5 25 -12z m-14 -247 c-3 -5 -12 -10 -18 -10 -7 0 -6 4 3 10 19 12
23 12 15 0z m22 -10 c-2 -11 -6 -22 -9 -26 -4 -3 -5 2 -3 13 2 10 4 21 4 26 1
4 3 7 6 7 3 0 4 -9 2 -20z m-4137 -26 c0 -8 -19 -13 -24 -6 -3 5 1 9 9 9 8 0
15 -2 15 -3z m60 -8 c0 -2 -9 -6 -20 -9 -11 -3 -18 -1 -14 4 5 9 34 13 34 5z
m4055 -5 c3 -5 0 -13 -6 -17 -8 -5 -9 -3 -4 6 6 9 1 10 -16 5 -19 -5 -21 -4
-9 4 19 13 27 14 35 2z m-4101 -17 c3 -8 2 -12 -4 -9 -6 3 -10 10 -10 16 0 14
7 11 14 -7z m143 -6 c2 -17 0 -19 -7 -8 -5 8 -6 18 -4 22 8 12 10 10 11 -14z
m-27 -2 c0 -2 -7 -7 -16 -10 -8 -3 -12 -2 -9 4 6 10 25 14 25 6z m104 -12 c3
-8 2 -12 -4 -9 -6 3 -10 10 -10 16 0 14 7 11 14 -7z m31 6 c3 -5 1 -10 -4 -10
-6 0 -11 5 -11 10 0 6 2 10 4 10 3 0 8 -4 11 -10z m213 -45 c-3 -3 -9 2 -12
12 -6 14 -5 15 5 6 7 -7 10 -15 7 -18z m3902 -39 c0 -2 -7 -9 -15 -16 -13 -11
-14 -10 -9 4 5 14 24 23 24 12z m-25 -44 c-3 -3 -11 0 -18 7 -9 10 -8 11 6 5
10 -3 15 -9 12 -12z m-25 -34 c0 -5 -4 -7 -9 -4 -5 4 -11 0 -14 -6 -3 -7 -4
-3 -4 8 1 21 27 23 27 2z m-36 -24 c3 -8 2 -12 -4 -9 -6 3 -10 10 -10 16 0 14
7 11 14 -7z m-123 -9 c5 4 6 -2 2 -11 -4 -11 -8 -13 -11 -6 -2 7 -8 10 -13 7
-5 -4 -6 2 -2 11 4 11 8 13 11 6 2 -7 8 -10 13 -7z m69 -5 c0 -5 -4 -10 -10
-10 -5 0 -10 5 -10 10 0 6 5 10 10 10 6 0 10 -4 10 -10z m30 0 c0 -5 -2 -10
-4 -10 -3 0 -8 5 -11 10 -3 6 -1 10 4 10 6 0 11 -4 11 -10z m-4290 -225 c0 -2
-14 -3 -31 -3 -17 1 -25 4 -18 8 10 7 49 2 49 -5z m97 -12 c1 -24 0 -25 -6 -8
-7 17 -6 35 2 35 2 0 3 -12 4 -27z m37 11 c3 -8 2 -12 -4 -9 -6 3 -10 10 -10
16 0 14 7 11 14 -7z m99 -11 c-3 -7 -6 -13 -8 -13 -2 0 -5 6 -8 13 -3 8 1 14
8 14 7 0 11 -6 8 -14z m-218 -3 c-3 -5 -12 -10 -18 -10 -7 0 -6 4 3 10 19 12
23 12 15 0z m56 -8 c-7 -2 -18 1 -23 6 -8 8 -4 9 13 5 13 -4 18 -8 10 -11z
m213 6 c-2 -3 -13 -6 -24 -5 -24 2 -18 13 9 13 11 0 18 -4 15 -8z m50 3 c-9
-9 -34 -9 -34 -1 0 5 9 8 20 7 10 -1 17 -3 14 -6z m3802 -286 c-1 -8 -5 -17
-8 -21 -5 -4 -4 16 1 34 3 9 9 -1 7 -13z m165 -26 c8 -12 10 -12 19 1 6 9 10
10 10 3 0 -20 -22 -27 -35 -10 -7 9 -14 14 -17 11 -4 -3 -9 -1 -12 4 -10 16
25 7 35 -9z m-31 -14 c19 -22 8 -25 -12 -3 -10 10 -14 18 -9 18 5 0 14 -7 21
-15z m-32 -4 c11 -7 10 -9 -3 -14 -11 -5 -14 -3 -9 5 5 8 2 9 -10 5 -10 -4
-15 -3 -11 3 7 12 16 12 33 1z m70 -33 c10 -12 10 -18 1 -24 -7 -4 -9 -3 -5 4
3 6 2 13 -4 17 -5 3 -10 11 -10 17 0 6 1 9 3 7 1 -2 8 -11 15 -21z m-352 -300
c3 -4 -1 -5 -10 -4 -8 1 -18 5 -22 8 -3 4 1 5 10 4 8 -1 18 -5 22 -8z m124
-52 c0 -2 -7 -7 -16 -10 -8 -3 -12 -2 -9 4 6 10 25 14 25 6z m15 -26 c3 -5 1
-10 -4 -10 -6 0 -11 5 -11 10 0 6 2 10 4 10 3 0 8 -4 11 -10z m55 4 c0 -8 -19
-13 -24 -6 -3 5 1 9 9 9 8 0 15 -2 15 -3z m-19 -31 c13 -16 12 -17 -3 -4 -17
13 -22 21 -14 21 2 0 10 -8 17 -17z m43 -14 c-4 -8 1 -9 17 -5 20 6 21 5 6 -4
-19 -12 -41 -4 -32 11 4 5 8 9 11 9 3 0 2 -5 -2 -11z m76 -13 c-7 -7 -13 -7
-20 0 -6 6 -3 10 10 10 13 0 16 -4 10 -10z m-845 -146 c3 -6 -1 -7 -9 -4 -18
7 -21 14 -7 14 6 0 13 -4 16 -10z m131 -135 c-1 -14 -5 -27 -8 -30 -4 -5 -4
19 1 48 3 19 9 4 7 -18z m24 -29 c0 -2 -8 -10 -17 -17 -16 -13 -17 -12 -4 4
13 16 21 21 21 13z m36 -16 c5 1 10 -4 12 -12 3 -11 2 -11 -6 0 -5 8 -13 13
-18 12 -5 -1 -10 4 -12 12 -3 11 -2 11 6 0 5 -8 13 -13 18 -12z m44 -14 c0 -3
-4 -8 -10 -11 -5 -3 -10 -1 -10 4 0 6 5 11 10 11 6 0 10 -2 10 -4z m-39 -21
c11 6 11 5 2 -5 -12 -14 -33 -6 -33 13 0 8 3 7 9 -2 5 -8 14 -10 22 -6z m54
-5 c3 -5 1 -10 -4 -10 -6 0 -11 5 -11 10 0 6 2 10 4 10 3 0 8 -4 11 -10z m-5
-26 c0 -2 -7 -4 -15 -4 -8 0 -15 4 -15 10 0 5 7 7 15 4 8 -4 15 -8 15 -10z
m-43 -16 c-3 -8 -6 -5 -6 6 -1 11 2 17 5 13 3 -3 4 -12 1 -19z m86 -13 c4 3 5
2 2 -2 -3 -3 -17 -7 -31 -8 -21 -1 -23 1 -10 11 9 6 15 13 13 15 -1 2 3 -1 9
-8 6 -7 14 -11 17 -8z m-60 0 c-3 -9 -8 -14 -10 -11 -3 3 -2 9 2 15 9 16 15
13 8 -4z m97 -9 c0 -2 -7 -7 -16 -10 -8 -3 -12 -2 -9 4 6 10 25 14 25 6z m-3
-32 c-3 -3 -12 -4 -19 -1 -8 3 -5 6 6 6 11 1 17 -2 13 -5z m-22 -24 c3 -6 -1
-7 -9 -4 -18 7 -21 14 -7 14 6 0 13 -4 16 -10z m35 6 c0 -3 -4 -8 -10 -11 -5
-3 -10 -1 -10 4 0 6 5 11 10 11 6 0 10 -2 10 -4z m-45 -26 c3 -5 1 -10 -4 -10
-6 0 -11 5 -11 10 0 6 2 10 4 10 3 0 8 -4 11 -10z m65 6 c0 -3 -4 -8 -10 -11
-5 -3 -10 -1 -10 4 0 6 5 11 10 11 6 0 10 -2 10 -4z m40 -6 c0 -5 -7 -7 -15
-4 -8 4 -15 8 -15 10 0 2 7 4 15 4 8 0 15 -4 15 -10z m-60 -35 c0 -5 -5 -3
-10 5 -5 8 -10 20 -10 25 0 6 5 3 10 -5 5 -8 10 -19 10 -25z m40 21 c0 -2 -7
-7 -16 -10 -8 -3 -12 -2 -9 4 6 10 25 14 25 6z m-10 -36 c-6 -11 -13 -20 -16
-20 -2 0 0 9 6 20 6 11 13 20 16 20 2 0 0 -9 -6 -20z m50 15 c0 -2 -10 -9 -22
-15 -22 -11 -22 -10 -4 4 21 17 26 19 26 11z m-3057 -55 c-3 -12 -8 -19 -11
-16 -5 6 5 36 12 36 2 0 2 -9 -1 -20z m3044 14 c-8 -8 -48 -13 -43 -6 2 4 14
8 26 9 12 1 20 0 17 -3z m38 -12 c-3 -3 -11 0 -18 7 -9 10 -8 11 6 5 10 -3 15
-9 12 -12z m-25 -13 c0 -5 -4 -7 -10 -4 -5 3 -10 1 -10 -6 0 -7 -3 -10 -6 -6
-8 7 4 27 17 27 5 0 9 -5 9 -11z m-2057 -321 c-4 -7 -8 -15 -8 -18 -1 -12 -24
-44 -25 -34 0 6 3 14 8 18 4 4 8 12 8 17 1 5 2 14 3 19 0 6 6 10 12 10 6 0 7
-5 2 -12z m-262 -41 c-6 -8 -8 -17 -4 -20 3 -4 1 -7 -5 -7 -15 0 -15 13 0 28
16 16 23 15 9 -1z m253 -70 c4 4 4 -1 0 -10 -3 -10 -7 -17 -8 -15 -1 2 -8 12
-16 23 -14 18 -13 19 1 8 9 -7 19 -10 23 -6z m-22 -59 c-14 -14 -16 -32 -2
-23 6 3 7 -1 4 -10 -6 -14 -8 -14 -19 1 -10 14 -9 20 4 34 9 9 18 15 20 13 3
-2 -1 -9 -7 -15z m655 -160 c-3 -7 -5 -2 -5 12 0 14 2 19 5 13 2 -7 2 -19 0
-25z"/>
</g>
</svg>
